<?xml version="1.0" standalone="no"?>
<!DOCTYPE svg PUBLIC "-//W3C//DTD SVG 20010904//EN"
 "http://www.w3.org/TR/2001/REC-SVG-20010904/DTD/svg10.dtd">
<svg version="1.0" xmlns="http://www.w3.org/2000/svg"
 width="260.000000pt" height="260.000000pt" viewBox="0 0 260.000000 260.000000"
 preserveAspectRatio="xMidYMid meet">
<metadata>
Created by potrace 1.11, written by Peter Selinger 2001-2013
</metadata>
<g transform="translate(0.000000,260.000000) scale(0.100000,-0.100000)"
fill="#000000" stroke="none">
<path d="M1060 2584 c-260 -47 -501 -174 -691 -363 -157 -158 -266 -341 -337
-569 -26 -85 -26 -92 -26 -352 0 -260 0 -267 26 -352 71 -228 180 -411 337
-569 192 -191 435 -318 696 -363 117 -21 333 -21 450 0 187 32 387 117 530
224 44 33 87 63 95 66 8 4 50 45 93 93 244 269 357 555 357 901 0 274 -67 498
-217 724 -193 291 -514 501 -858 560 -110 19 -349 19 -455 0z m475 -214 c91
-23 168 -51 225 -80 l39 -20 -160 -238 c-89 -130 -195 -288 -237 -350 -60 -89
-78 -110 -87 -100 -7 7 -118 171 -248 365 l-236 351 67 26 c164 61 253 76 427
71 88 -3 156 -10 210 -25z m-391 -990 c1 -18 -580 -890 -593 -890 -5 0 -34 28
-63 62 -145 169 -217 303 -268 502 -29 114 -29 378 0 492 58 226 189 446 343
575 l59 49 261 -387 c143 -214 261 -395 261 -403z m993 614 c110 -136 194
-311 234 -489 18 -79 18 -331 0 -410 -35 -159 -117 -339 -204 -452 -62 -81
-124 -149 -130 -143 -6 7 -469 709 -519 788 -40 62 -40 63 -22 90 9 15 127
190 261 390 l245 363 31 -24 c18 -13 64 -64 104 -113z m-470 -1382 l172 -262
-67 -34 c-160 -80 -293 -110 -482 -110 -152 0 -212 9 -340 51 -74 25 -190 79
-190 88 0 3 122 188 271 411 l271 406 96 -143 c53 -79 174 -262 269 -407z"/>
</g>
</svg>
