<?xml version="1.0" standalone="no"?>
<!DOCTYPE svg PUBLIC "-//W3C//DTD SVG 20010904//EN"
 "http://www.w3.org/TR/2001/REC-SVG-20010904/DTD/svg10.dtd">
<svg version="1.0" xmlns="http://www.w3.org/2000/svg"
 width="260.000000pt" height="260.000000pt" viewBox="0 0 260.000000 260.000000"
 preserveAspectRatio="xMidYMid meet">
<metadata>
Created by potrace 1.11, written by Peter Selinger 2001-2013
</metadata>
<g transform="translate(0.000000,260.000000) scale(0.100000,-0.100000)"
fill="#000000" stroke="none">
<path d="M1060 2584 c-260 -47 -501 -174 -691 -363 -157 -158 -266 -341 -337
-569 -26 -85 -26 -92 -26 -352 0 -260 0 -267 26 -352 97 -310 283 -564 534
-731 226 -150 450 -217 724 -217 274 0 498 67 724 217 291 193 501 514 560
858 21 117 21 333 0 450 -45 261 -172 504 -363 696 -192 191 -435 318 -696
363 -110 19 -349 19 -455 0z m401 -200 c472 -81 832 -441 913 -913 68 -397
-113 -826 -447 -1062 -241 -170 -534 -240 -808 -193 -454 78 -811 420 -905
867 -19 91 -19 343 0 434 18 86 59 198 101 283 211 416 692 662 1146 584z"/>
<path d="M1198 2030 c-74 -13 -148 -37 -218 -72 l-65 -33 -3 -97 -3 -98 63 40
c110 68 189 94 298 94 84 1 100 -2 139 -24 67 -38 103 -89 109 -153 7 -93 -25
-144 -239 -373 -87 -93 -100 -131 -106 -301 l-5 -133 105 0 105 0 4 133 c5
166 10 177 167 342 151 157 176 204 176 325 0 76 -4 93 -33 152 -78 160 -269
236 -494 198z"/>
<path d="M1160 600 l0 -130 105 0 105 0 0 130 0 130 -105 0 -105 0 0 -130z"/>
</g>
</svg>
